# File created by Blade
# Date/Time:  Wed Jan 21 17:57:11 2015
# Frame Rate: 120.000 fps
#------------------------------------------------------
:FULLY-SPECIFIED
:DEGREES
2110
root 17.266521 35.512320 -23.837320 -175.105517 -0.330862 -178.763714
Spine -16.706341 0.456782 0.712974
Head 136.511774 1.489534 180.466046
LeftShoulder -7.753933 -22.948600 17.616677
LeftArm 2.105908 -5.268479 -4.985933
LeftForeArm 13.355373 -0.000000 -3.996253
LeftHand -11.420239 0.000000 -0.130866
LeftHandThumb1 -26.253704 0.000000 33.147579
RightShoulder -8.720858 -8.074013 -11.362490
RightArm -2.453421 47.369630 6.702006
RightForeArm -36.267235 -0.000000 4.704032
RightHand -8.551638 -0.000000 7.909813
RightHandThumb1 -24.326973 -0.000000 -32.862282
LeftUpLeg 6.921940 9.320211 2.590348
LeftLeg -7.046636 -0.000000 0.000000
LeftFoot -19.729513 24.892078 -14.051094
LeftToeBase 22.614398 -0.000000 -0.000000
RightUpLeg 4.889295 -6.987972 -0.508315
RightLeg -4.990004 -0.000000 0.000000
RightFoot -20.181867 -22.537685 17.631325
RightToeBase 23.182565 -0.000000 -0.000000
2111
root 17.265739 35.512985 -23.839316 -175.099508 -0.333353 -178.771679
Spine -16.736615 0.447632 0.712543
Head 136.491943 1.488784 180.447500
LeftShoulder -7.713105 -22.972298 17.589506
LeftArm 2.066210 -5.424286 -5.008103
LeftForeArm 13.310733 -0.000000 -4.018572
LeftHand -11.438323 -0.000000 -0.149087
LeftHandThumb1 -26.253704 0.000000 33.147579
RightShoulder -8.707451 -8.094939 -11.351262
RightArm -2.446769 47.263837 6.673920
RightForeArm -36.264369 0.000000 4.708594
RightHand -8.561052 -0.000000 7.988638
RightHandThumb1 -24.326973 -0.000000 -32.862282
LeftUpLeg 6.924565 9.318933 2.581680
LeftLeg -7.061995 -0.000000 0.000000
LeftFoot -19.724008 24.893644 -14.076871
LeftToeBase 22.592878 -0.000000 -0.000000
RightUpLeg 4.881924 -7.000325 -0.518099
RightLeg -4.982321 -0.000000 0.000000
RightFoot -20.183646 -22.547503 17.640624
RightToeBase 23.330743 -0.000000 -0.000000
2112
root 17.265593 35.512991 -23.841739 -175.092609 -0.337428 -178.778755
Spine -16.767544 0.441240 0.710363
Head 136.478903 1.471083 180.447562
LeftShoulder -7.672367 -23.007931 17.574771
LeftArm 2.010579 -5.560174 -5.036568
LeftForeArm 13.283652 -0.000000 -4.013655
LeftHand -11.449590 -0.000000 -0.229865
LeftHandThumb1 -26.253704 0.000000 33.147579
RightShoulder -8.725166 -8.139913 -11.339561
RightArm -2.375867 47.183499 6.693952
RightForeArm -36.242743 0.000000 4.681498
RightHand -8.545720 -0.000000 7.997043
RightHandThumb1 -24.326973 -0.000000 -32.862282
LeftUpLeg 6.928539 9.305238 2.575393
LeftLeg -7.072855 -0.000000 0.000000
LeftFoot -19.702946 24.891748 -14.068161
LeftToeBase 22.581940 -0.000000 -0.000000
RightUpLeg 4.880371 -6.996515 -0.525290
RightLeg -4.981371 -0.000000 0.000000
RightFoot -20.193462 -22.526135 17.638886
RightToeBase 23.195596 -0.000000 -0.000000
2113
root 17.265496 35.512972 -23.843108 -175.089260 -0.344094 -178.786683
Spine -16.789783 0.419201 0.711093
Head 136.469430 1.419386 180.455199
LeftShoulder -7.634857 -23.021519 17.555372
LeftArm 1.942667 -5.682307 -5.050041
LeftForeArm 13.324904 -0.000000 -3.994622
LeftHand -11.532979 -0.000000 -0.264741
LeftHandThumb1 -26.253704 0.000000 33.147579
RightShoulder -8.723275 -8.167003 -11.330617
RightArm -2.329619 47.177887 6.698871
RightForeArm -36.269448 -0.000000 4.666794
RightHand -8.518520 -0.000000 8.002744
RightHandThumb1 -24.326973 -0.000000 -32.862282
LeftUpLeg 6.927366 9.299130 2.569750
LeftLeg -7.073512 -0.000000 0.000000
LeftFoot -19.700631 24.873133 -14.090565
LeftToeBase 22.577156 -0.000000 -0.000000
RightUpLeg 4.879248 -7.004422 -0.533158
RightLeg -4.978763 -0.000000 0.000000
RightFoot -20.200401 -22.520529 17.643470
RightToeBase 23.184355 -0.000000 -0.000000
2114
root 17.265328 35.512837 -23.845982 -175.091325 -0.353458 -178.790840
Spine -16.808919 0.391390 0.716382
Head 136.459480 1.392032 180.454689
LeftShoulder -7.597186 -23.051148 17.528983
LeftArm 1.896779 -5.656368 -5.053526
LeftForeArm 13.232612 -0.000000 -4.023146
LeftHand -11.552274 -0.000000 -0.235751
LeftHandThumb1 -26.253704 0.000000 33.147579
RightShoulder -8.724933 -8.189997 -11.323867
RightArm -2.273011 47.186155 6.711870
RightForeArm -36.269478 -0.000000 4.650420
RightHand -8.517329 0.000000 7.991604
RightHandThumb1 -24.326973 -0.000000 -32.862282
LeftUpLeg 6.934609 9.298302 2.567591
LeftLeg -7.075524 -0.000000 0.000000
LeftFoot -19.700475 24.862122 -14.091051
LeftToeBase 22.592918 -0.000000 -0.000000
RightUpLeg 4.880641 -7.009129 -0.534856
RightLeg -4.966501 -0.000000 0.000000
RightFoot -20.210907 -22.542675 17.639699
RightToeBase 23.139215 -0.000000 -0.000000
2115
root 17.267492 35.512374 -23.850393 -175.093027 -0.373839 -178.792040
Spine -16.835145 0.349976 0.717568
Head 136.445103 1.352059 180.476459
LeftShoulder -7.566486 -23.048493 17.525370
LeftArm 1.844128 -5.715655 -5.071834
LeftForeArm 13.247182 -0.000000 -4.021720
LeftHand -11.524942 0.000000 -0.254468
LeftHandThumb1 -26.253704 0.000000 33.147579
RightShoulder -8.729451 -8.193549 -11.309808
RightArm -2.209472 47.184624 6.715853
RightForeArm -36.271624 0.000000 4.623164
RightHand -8.516836 -0.000000 7.973449
RightHandThumb1 -24.326973 -0.000000 -32.862282
LeftUpLeg 6.947877 9.277750 2.572506
LeftLeg -7.091613 -0.000000 0.000000
LeftFoot -19.693888 24.867439 -14.085061
LeftToeBase 22.600919 -0.000000 -0.000000
RightUpLeg 4.891009 -7.037561 -0.530104
RightLeg -4.966706 -0.000000 0.000000
RightFoot -20.224398 -22.548159 17.642569
RightToeBase 23.156986 -0.000000 -0.000000
2116
root 17.268146 35.512407 -23.853253 -175.105640 -0.382939 -178.789530
Spine -16.837227 0.316093 0.731423
Head 136.465798 1.143808 180.608587
LeftShoulder -7.551169 -23.057073 17.499869
LeftArm 1.807461 -5.705063 -5.069722
LeftForeArm 13.268511 -0.000000 -4.027912
LeftHand -11.483797 -0.000000 -0.260892
LeftHandThumb1 -26.253704 0.000000 33.147579
RightShoulder -8.736888 -8.183876 -11.298636
RightArm -2.139491 47.212059 6.720924
RightForeArm -36.262959 -0.000000 4.600899
RightHand -8.499287 0.000000 7.951041
RightHandThumb1 -24.326973 -0.000000 -32.862282
LeftUpLeg 6.960526 9.272622 2.580918
LeftLeg -7.081882 -0.000000 0.000000
LeftFoot -19.694946 24.850430 -14.094024
LeftToeBase 22.624529 -0.000000 -0.000000
RightUpLeg 4.899467 -7.038452 -0.525335
RightLeg -4.946218 -0.000000 0.000000
RightFoot -20.246594 -22.550114 17.669469
RightToeBase 23.123641 -0.000000 -0.000000
2117
root 17.268354 35.511597 -23.856368 -175.121260 -0.395191 -178.784324
Spine -16.835516 0.282000 0.749607
Head 136.468690 1.125786 180.608864
LeftShoulder -7.544278 -23.029775 17.479735
LeftArm 1.788587 -5.699596 -5.076472
LeftForeArm 13.296750 -0.000000 -4.041920
LeftHand -11.490311 0.000000 -0.261110
LeftHandThumb1 -26.253704 0.000000 33.147579
RightShoulder -8.752313 -8.207925 -11.283662
RightArm -2.057165 47.286860 6.733543
RightForeArm -36.274909 -0.000000 4.592579
RightHand -8.507520 -0.000000 7.963757
RightHandThumb1 -24.326973 -0.000000 -32.862282
LeftUpLeg 6.978539 9.249202 2.589248
LeftLeg -7.080819 -0.000000 0.000000
LeftFoot -19.708036 24.864716 -14.095995
LeftToeBase 22.576976 -0.000000 -0.000000
RightUpLeg 4.920155 -7.057049 -0.520318
RightLeg -4.944056 -0.000000 0.000000
RightFoot -20.254188 -22.567566 17.663236
RightToeBase 23.150242 -0.000000 -0.000000
2118
root 17.269536 35.510531 -23.859372 -175.137308 -0.401804 -178.780526
Spine -16.836525 0.247208 0.758804
Head 136.438103 1.312929 180.480502
LeftShoulder -7.545981 -22.997103 17.463781
LeftArm 1.795397 -5.685615 -5.075671
LeftForeArm 13.322537 -0.000000 -4.084241
LeftHand -11.461808 0.000000 -0.293147
LeftHandThumb1 -26.253704 0.000000 33.147579
RightShoulder -8.738608 -8.194162 -11.283949
RightArm -2.028269 47.289858 6.736078
RightForeArm -36.251615 -0.000000 4.580788
RightHand -8.446219 -0.000000 7.903245
RightHandThumb1 -24.326973 -0.000000 -32.862282
LeftUpLeg 6.996461 9.236075 2.597725
LeftLeg -7.078486 -0.000000 0.000000
LeftFoot -19.731113 24.876546 -14.095604
LeftToeBase 22.594620 -0.000000 -0.000000
RightUpLeg 4.934717 -7.067162 -0.515375
RightLeg -4.932802 -0.000000 0.000000
RightFoot -20.261047 -22.587532 17.660859
RightToeBase 23.292954 -0.000000 -0.000000
